#!OML:ASF I:\golf\golf\golf 2\Subject 1\2002-09-07\Subject1.ASF
:FULLY-SPECIFIED
:DEGREES
317
root -7.37872 17.7726 4.28321 3.73265 41.0338 -10.0837
lowerback 7.76695 -9.11985 -17.6063
upperback 0.210202 -13.5592 -3.41667
thorax -0.928871 -6.55604 6.62922
lowerneck -5.26843 21.9997 2.49887
upperneck 12.3021 31.7495 -13.3565
head 7.22783 14.5182 -1.50376
rclavicle 2.54444e-014 -1.90833e-014
rhumerus 31.5138 -24.6732 -64.1021
rradius 99.5368
rwrist -16.3303
rhand -64.5616 21.4858
rfingers 7.12502
rthumb -36.4828 -4.71063
lclavicle 2.54444e-014 -1.90833e-014
lhumerus 109.909 -43.2097 46.4972
lradius 32.6203
lwrist 1.1545
lhand -11.9421 8.2951
lfingers 7.12502
lthumb -165.887 217.796
rfemur -33.6839 10.8768 24.4716
rtibia 31.6991
rfoot -3.07392 25.7618
rtoes 15.6259
lfemur -9.14776 24.2716 7.3696
ltibia 40.1619
lfoot 5.68741 1.58251
ltoes -34.7847
318
root -7.38486 17.7699 4.21948 3.83595 41.9773 -10.3183
lowerback 8.17773 -9.76928 -17.6561
upperback 0.54637 -14.4559 -2.43548
thorax -0.304217 -7.09269 7.63724
lowerneck -7.98287 22.6151 -1.06023
upperneck 12.4127 32.8565 -12.5421
head 7.10044 14.8149 -0.596
rclavicle -2.68359e-014 6.36111e-015
rhumerus 33.9189 -22.5907 -65.6156
rradius 98.909
rwrist -17.1554
rhand -64.4702 21.0433
rfingers 7.12502
rthumb -36.3962 -5.17489
lclavicle -2.68359e-014 6.36111e-015
lhumerus 108.141 -41.3248 48.1312
lradius 31.8484
lwrist 0.548273
lhand -11.7191 8.67114
lfingers 7.12502
lthumb -165.672 218.157
rfemur -34.2048 10.5502 24.3148
rtibia 31.7555
rfoot -3.64028 24.981
rtoes 13.2686
lfemur -9.98133 24.809 6.99024
ltibia 40.0263
lfoot 4.83867 2.17811
ltoes -33.9373
319
root -7.39064 17.7664 4.14991 3.89677 42.964 -10.5653
lowerback 8.2851 -9.44737 -17.4496
upperback 0.505731 -14.0436 -2.63312
thorax -0.611005 -6.85644 7.39308
lowerneck -6.22075 22.1526 1.09514
upperneck 12.3042 32.0799 -13.3228
head 7.19364 14.5756 -1.23925
rclavicle -7.43455e-014 -4.13472e-014
rhumerus 32.2305 -23.1543 -65.9138
rradius 98.6788
rwrist -17.8665
rhand -64.388 20.7963
rfingers 7.12502
rthumb -36.3184 -5.44133
lclavicle -7.43455e-014 -4.13472e-014
lhumerus 108.016 -43.0444 47.992
lradius 31.5973
lwrist 0.808372
lhand -11.1653 9.39809
lfingers 7.12502
lthumb -165.139 218.845
rfemur -34.6838 10.4075 24.0456
rtibia 31.7888
rfoot -3.72724 23.9489
rtoes 14.6854
lfemur -10.8256 25.288 6.5566
ltibia 39.8999
lfoot 3.82096 2.67544
ltoes -33.3654
320
root -7.39733 17.7674 4.07812 3.87776 44.0188 -10.9393
lowerback 8.43537 -9.22265 -17.1246
upperback 0.562214 -13.7457 -2.67271
thorax -0.788933 -6.69895 7.23769
lowerneck -5.36611 21.7085 2.49364
upperneck 12.455 31.4598 -13.7944
head 7.34806 14.338 -1.62984
rclavicle 4.17448e-014 -3.18055e-015
rhumerus 31.0043 -23.556 -66.4314
rradius 98.42
rwrist -18.6672
rhand -64.1981 20.6575
rfingers 7.12502
rthumb -36.1386 -5.62484
lclavicle 4.17448e-014 -3.18055e-015
lhumerus 107.875 -44.2663 47.8434
lradius 31.3312
lwrist 1.20336
lhand -10.4438 9.83523
lfingers 7.12502
lthumb -164.444 219.23
rfemur -35.148 10.3888 23.8049
rtibia 31.7791
rfoot -3.85317 22.7225
rtoes 15.3218
lfemur -11.7504 25.7667 6.14902
ltibia 39.7934
lfoot 2.71945 2.94584
ltoes -33.4176
321
root -7.40254 17.7628 4.00758 3.94526 45.1059 -11.2646
lowerback 8.57633 -9.14553 -16.8058
upperback 0.626436 -13.6379 -2.57832
thorax -0.870239 -6.64716 7.20695
lowerneck -5.2417 21.4258 2.90106
upperneck 12.7428 31.069 -13.6659
head 7.42725 14.1682 -1.68244
rclavicle 0 1.59028e-014
rhumerus 30.2189 -23.5932 -67.2131
rradius 98.104
rwrist -19.5956
rhand -63.9959 20.91
rfingers 7.12502
rthumb -35.9471 -5.41954
lclavicle 0 1.59028e-014
lhumerus 107.302 -45.141 48.0227
lradius 30.9546
lwrist 1.23243
lhand -9.81576 10.1922
lfingers 7.12502
lthumb -163.839 219.538
rfemur -35.6664 10.095 23.6033
rtibia 31.7501
rfoot -4.11928 21.8662
rtoes 14.2313
lfemur -12.7971 26.3325 5.64043
ltibia 39.7154
lfoot 1.62876 3.05344
ltoes -33.9203
322
root -7.40685 17.7515 3.93214 4.07256 46.3104 -11.5142
lowerback 8.75382 -9.16537 -16.5118
upperback 0.703814 -13.6636 -2.42286
thorax -0.904524 -6.66686 7.24947
lowerneck -5.403 21.2238 2.99913
upperneck 13.139 30.8093 -13.3889
head 7.52876 14.0352 -1.61779
rclavicle 8.78628e-014 3.18055e-015
rhumerus 29.6582 -23.3946 -68.0432
rradius 97.7223
rwrist -20.382
rhand -63.9667 20.6863
rfingers 7.12502
rthumb -35.9194 -5.64994
lclavicle 8.78628e-014 3.18055e-015
lhumerus 106.283 -45.8924 48.5352
lradius 30.6973
lwrist 1.06892
lhand -9.10236 10.8801
lfingers 7.12502
lthumb -163.152 220.169
rfemur -36.2213 9.69136 23.3281
rtibia 31.746
rfoot -4.66037 20.9455
rtoes 11.5538
lfemur -13.9711 26.7995 4.99068
ltibia 39.6636
lfoot 0.520675 3.26573
ltoes -33.3004
323
root -7.41308 17.7465 3.85204 4.14112 47.6256 -11.8208
lowerback 9.00877 -9.36292 -16.3637
upperback 0.86383 -13.9378 -1.97526
thorax -0.724184 -6.83755 7.65405
lowerneck -5.95015 21.1772 2.3831
upperneck 13.3082 30.8205 -13.3101
head 7.57231 13.9811 -1.47651
rclavicle -2.22639e-014 1.27222e-014
rhumerus 29.7121 -22.6502 -68.9173
rradius 97.2785
rwrist -21.1234
rhand -63.8624 20.1034
rfingers 7.12502
rthumb -35.8206 -6.25699
lclavicle -2.22639e-014 1.27222e-014
lhumerus 104.882 -45.97 49.5369
lradius 30.338
lwrist 0.869729
lhand -8.59257 11.5252
lfingers 7.12502
lthumb -162.661 220.772
rfemur -36.7825 9.30815 23.0268
rtibia 31.7935
rfoot -5.22035 19.8091
rtoes 8.49214
lfemur -15.2584 27.2524 4.28344
ltibia 39.6385
lfoot -0.675773 3.59554
ltoes -31.2199
324
root -7.41923 17.7442 3.77553 4.16496 48.9661 -12.1901
lowerback 9.23821 -9.7698 -16.2732
upperback 1.10635 -14.478 -1.23842
thorax -0.278143 -7.17629 8.35032
lowerneck -7.23568 21.3732 0.655789
upperneck 13.4189 31.2592 -13.0817
head 7.56203 14.0574 -1.0736
rclavicle 3.65764e-014 0
rhumerus 30.4855 -21.2623 -70.0388
rradius 96.8056
rwrist -22.1549
rhand -63.5261 19.9033
rfingers 7.12502
rthumb -35.5018 -6.53404
lclavicle 3.65764e-014 0
lhumerus 103.175 -45.275 51.0604
lradius 29.5619
lwrist 0.467029
lhand -8.57398 11.6926
lfingers 7.12502
lthumb -162.644 220.938
rfemur -37.3522 8.96228 22.7146
rtibia 31.8925
rfoot -5.27094 18.6771
rtoes 7.79448
lfemur -16.6205 27.9108 3.54332
ltibia 39.6232
lfoot -1.82286 3.69157
ltoes -29.9746
325
root -7.42414 17.7436 3.697 4.04223 50.3964 -12.7829
lowerback 9.14571 -9.51871 -15.6617
upperback 1.13177 -14.0728 -1.37938
thorax -0.483845 -6.95795 7.91049
lowerneck -5.91045 20.7883 2.66795
upperneck 13.6616 30.3679 -13.5093
head 7.72261 13.7462 -1.59927
rclavicle -1.50679e-013 2.54444e-014
rhumerus 28.6156 -22.0968 -70.6768
rradius 96.6718
rwrist -23.1859
rhand -63.2846 19.0725
rfingers 7.12502
rthumb -35.2729 -7.41939
lclavicle -1.50679e-013 2.54444e-014
lhumerus 102.889 -47.1956 50.9034
lradius 29.013
lwrist 0.655628
lhand -8.45792 11.869
lfingers 7.12502
lthumb -162.532 221.104
rfemur -37.9455 8.73335 22.4571
rtibia 32.046
rfoot -5.44065 17.3439
rtoes 6.39501
lfemur -18.1071 28.5976 2.82049
ltibia 39.5716
lfoot -2.71113 3.70155
ltoes -30.1709
326
root -7.42967 17.7499 3.61689 3.85455 51.9287 -13.4347
lowerback 9.12948 -9.45714 -15.052
upperback 1.34018 -13.9109 -1.25327
thorax -0.397799 -6.90066 7.71989
lowerneck -5.73895 20.3751 3.46168
upperneck 13.861 29.7951 -13.6632
head 7.85163 13.4977 -1.7963
rclavicle 1.12115e-013 -4.45278e-014
rhumerus 27.6074 -22.3834 -71.5125
rradius 96.3123
rwrist -23.7442
rhand -63.2303 18.3089
rfingers 7.12502
rthumb -35.2214 -8.19518
lclavicle 1.12115e-013 -4.45278e-014
lhumerus 102.342 -48.2895 51.0468
lradius 28.5883
lwrist 0.70826
lhand -8.09347 12.2262
lfingers 7.12502
lthumb -162.181 221.43
rfemur -38.4975 8.34228 22.2483
rtibia 32.206
rfoot -5.8025 16.1094
rtoes 3.5813
lfemur -19.61 28.8865 2.02086
ltibia 39.4787
lfoot -3.63664 4.04379
ltoes -28.9399
327
root -7.43553 17.7551 3.53803 3.78369 53.5485 -13.8698
lowerback 9.19416 -9.55911 -14.7327
upperback 1.5592 -14.0031 -0.923708
thorax -0.16382 -6.98504 7.88074
lowerneck -6.11665 20.1452 3.55194
upperneck 14.2504 29.5411 -13.6144
head 8.02752 13.3389 -1.76821
rclavicle -1.4551e-013 2.22639e-014
rhumerus 27.0118 -22.0572 -72.447
rradius 95.5916
rwrist -24.0821
rhand -63.2071 18.5033
rfingers 7.12502
rthumb -35.1994 -8.00597
lclavicle -1.4551e-013 2.22639e-014
lhumerus 101.243 -48.8135 51.6948
lradius 28.1567
lwrist 0.712116
lhand -7.88803 12.8298
lfingers 7.12502
lthumb -161.983 222.015
rfemur -39.0078 7.78449 21.9277
rtibia 32.3626
rfoot -6.19835 14.8664
rtoes 0.368526
lfemur -21.0104 28.5842 1.09841
ltibia 39.3337
lfoot -4.8034 4.50987
ltoes -25.4965
328
root -7.4397 17.7508 3.45368 3.62695 55.2655 -14.3942
lowerback 9.28475 -9.67804 -14.2932
upperback 1.68983 -14.1225 -0.560331
thorax -0.0535851 -7.06987 8.03392
lowerneck -6.39686 19.9176 3.58213
upperneck 14.7918 29.3081 -13.4772
head 8.21763 13.1895 -1.71401
rclavicle 3.4191e-014 6.36111e-014
rhumerus 26.2651 -21.6669 -73.3368
rradius 94.7164
rwrist -24.5471
rhand -63.1303 19.1613
rfingers 7.12502
rthumb -35.1265 -7.36514
lclavicle 3.4191e-014 6.36111e-014
lhumerus 99.8629 -49.4241 52.5681
lradius 27.6717
lwrist 0.71132
lhand -7.83116 13.537
lfingers 7.12502
lthumb -161.929 222.718
rfemur -39.5262 7.37399 21.5315
rtibia 32.5195
rfoot -6.54114 13.2515
rtoes -2.71838
lfemur -22.463 28.2294 0.197261
ltibia 39.1351
lfoot -5.84197 4.74763
ltoes -22.7235
329
root -7.4418 17.7454 3.36439 3.33565 57.0477 -15.0574
lowerback 9.2905 -9.75353 -13.6993
upperback 1.86838 -14.1531 -0.199024
thorax 0.0953606 -7.11477 8.08842
lowerneck -6.26769 19.5517 3.61346
upperneck 14.7798 28.8208 -13.6277
head 8.17739 12.967 -1.84471
rclavicle -3.57812e-014 3.81667e-014
rhumerus 25.5279 -21.4364 -74.1884
rradius 94.0994
rwrist -25.2874
rhand -63.0557 20.3959
rfingers 7.12502
rthumb -35.0557 -6.1471
lclavicle -3.57812e-014 3.81667e-014
lhumerus 98.5518 -50.1552 53.457
lradius 27.1182
lwrist 0.61514
lhand -7.76236 14.1928
lfingers 7.12502
lthumb -161.863 223.367
rfemur -39.9416 7.18219 20.9915
rtibia 32.6239
rfoot -6.6542 11.482
rtoes -4.11912
lfemur -23.9614 28.1632 -0.767847
ltibia 38.9128
lfoot -6.6167 4.87397
ltoes -22.0909
330
root -7.44166 17.7447 3.27314 2.94414 58.9235 -15.8096
lowerback 9.18858 -9.84624 -13.0871
upperback 2.15581 -14.181 0.225249
thorax 0.430898 -7.17665 8.15919
lowerneck -6.4503 19.1508 3.40956
upperneck 14.8528 28.2923 -13.6185
head 8.1551 12.7034 -1.87936
rclavicle 9.54166e-015 2.8625e-014
rhumerus 24.9436 -21.2405 -75.1189
rradius 93.6044
rwrist -26.0878
rhand -62.9189 22.0011
rfingers 7.12502
rthumb -34.926 -4.57224
lclavicle 9.54166e-015 2.8625e-014
lhumerus 97.1274 -50.8091 54.6419
lradius 26.5054
lwrist 0.326439
lhand -7.66761 14.9973
lfingers 7.12502
lthumb -161.771 224.163
rfemur -40.267 6.95521 20.4238
rtibia 32.6821
rfoot -6.61078 9.69202
rtoes -4.63971
lfemur -25.4357 28.0743 -1.77939
ltibia 38.675
lfoot -7.29562 4.95554
ltoes -21.4566
331
root -7.44153 17.7395 3.18085 2.23166 60.9721 -16.8379
lowerback 9.10576 -9.94218 -12.3242
upperback 2.50558 -14.2016 0.638928
thorax 0.780023 -7.23349 8.1402
lowerneck -6.97859 18.7434 3.37443
upperneck 15.3212 27.7957 -13.4686
head 8.32977 12.4231 -1.83429
rclavicle -1.63799e-013 7.63333e-014
rhumerus 24.1593 -21.2958 -76.3769
rradius 92.9896
rwrist -26.6153
rhand -62.5696 22.4916
rfingers 7.12502
rthumb -34.5946 -4.15816
lclavicle -1.63799e-013 7.63333e-014
lhumerus 95.7332 -51.4785 55.6605
lradius 25.9535
lwrist 0.0138276
lhand -7.59462 15.7298
lfingers 7.12502
lthumb -161.701 224.889
rfemur -40.542 6.59035 19.9898
rtibia 32.7283
rfoot -6.38639 7.76233
rtoes -4.87603
lfemur -26.8709 27.7279 -2.65412
ltibia 38.409
lfoot -7.93583 4.97271
ltoes -19.9677
